<svg id="Layer_1" data-name="Layer 1" xmlns="http://www.w3.org/2000/svg" viewBox="0 0 32 32" width="32px"><defs><style>.cls-1{fill:#3eb5f1;}.cls-2,.cls-3{fill:#201600;}.cls-2{stroke:#3eb5f1;stroke-miterlimit:10;stroke-width:2px;}.cls-3{font-size:24px;font-family:BrushScriptMT, Brush Script MT;font-style:italic;}</style></defs><title>logo2</title><path class="cls-1" d="M205.53,462.78l34.11-4.14,82.44-10,99.28-12.05,85.89-10.42c13.86-1.68,28.29-2.38,42-5.1.19,0,.39,0,.59-.07a2.53,2.53,0,0,0,1.26-4.66l-31.1-23L445.3,338l-90.37-66.92L276.8,213.21l-25.75-19.07c-3.89-2.88-7.9-6.8-12.21-9a4.41,4.41,0,0,1-.53-.39c-1.7-1.26-3.57.51-3.76,2.16l-10.63,92.26-17,147.19-3.92,34c-.37,3.19,4.64,3.16,5,0L218.66,368l17-147.19,3.92-34L235.78,189l31.1,23,74.7,55.32L432,334.29l78.13,57.85,25.75,19.07,8,5.94c1.21.9,2.77,2.58,4.2,3.11a2.67,2.67,0,0,1,.53.39l1.26-4.66-34.11,4.14-82.44,10L334,442.19l-85.89,10.42-28.48,3.46c-4.44.54-9.13.71-13.51,1.64-.19,0-.39,0-.59.07C202.38,458.16,202.34,463.17,205.53,462.78Z" transform="translate(-119.1 -184.28)"/><path class="cls-2" d="M140,348.35,139.42,369l-4.21-.29-.48,18.65-14.61-1,1.29-49.81q.38-14.46,5.53-22.13t14.11-7a14.44,14.44,0,0,1,12.58,8.14q3.95,7.54,3.55,22.7l-1.31,50.62-14.61-1,1.27-49.07a20.43,20.43,0,0,0-.52-6.42,2.6,2.6,0,0,0-2.4-1.95q-3.42-.24-3.63,7.91l-.25,9.76Z" transform="translate(-119.1 -184.28)"/><path class="cls-2" d="M165.19,333l13.45.92-.84,32.31q-.13,4.88,2.43,5.05t2.64-4.71l.84-32.31,13.45.92-.83,31.91q-.29,11.14-5.13,18.48t-11.57,6.88q-7.66-.53-12.11-9.74-3.46-7.18-3.13-19.53Z" transform="translate(-119.1 -184.28)"/><path class="cls-2" d="M227.67,315.29l13.45.92-1.24,47.69Q239.54,377,235,385a20.24,20.24,0,0,1-6.51,7.14,12.7,12.7,0,0,1-7.93,2.27q-8-.55-13.3-9.54t-5-21.5q.31-12.11,6-20.57t13.18-7.95a28.72,28.72,0,0,1,3.59.59l-.61,23.64q-1.6-2.18-3.26-2.29-2.09-.14-3.64,2.19a10.72,10.72,0,0,0-1.65,5.78,10.58,10.58,0,0,0,1.4,5.82,4.67,4.67,0,0,0,3.64,2.64q5.18.36,5.48-11.06Z" transform="translate(-119.1 -184.28)"/><path class="cls-2" d="M261.11,338.74,259.63,396,246.17,395l1.49-57.22Zm-6-26q2.73.19,4.65,3.4a13.44,13.44,0,0,1,1.81,7.4,12.71,12.71,0,0,1-2.08,7.22,5.36,5.36,0,0,1-4.91,2.54,5.93,5.93,0,0,1-4.76-3.2,13.52,13.52,0,0,1-1.7-7.48,12.6,12.6,0,0,1,2.18-7.12Q252.35,312.56,255.08,312.74Z" transform="translate(-119.1 -184.28)"/><path class="cls-2" d="M286.07,339.25q7.63.53,12.85,9.65t4.9,21.35q-.32,12.4-6.07,20.74T284.2,398.8q-7.81-.54-13.12-9.67t-5-21.47q.33-12.57,6.09-20.77T286.07,339.25Zm-.91,21.15q-2.16-.15-3.73,2.24a11.25,11.25,0,0,0-1.67,6,11.87,11.87,0,0,0,1.37,6.19q1.46,2.63,3.59,2.78t3.75-2.27a11.19,11.19,0,0,0,1.69-6,11.94,11.94,0,0,0-1.35-6.22Q287.36,360.55,285.16,360.4Z" transform="translate(-119.1 -184.28)"/><path class="cls-2" d="M322.71,321.82l-.57,21.92,6,.42-.59,22.67-6-.42q-.18,6.83,1.1,9.5t4.88,2.92l-.59,22.55c-.7,0-1.21,0-1.55,0a13.82,13.82,0,0,1-8.53-4,25.1,25.1,0,0,1-6.25-9.63q-2.91-7.6-2.58-19.84l1.22-47Z" transform="translate(-119.1 -184.28)"/><path class="cls-2" d="M369.24,378.31l-20.4-1.4a24.77,24.77,0,0,1-.35-4.56,24.15,24.15,0,0,1,.79-5.58l6.84.47q-.56-6.42-4.33-6.68-2.52-.17-4.19,3.13a20.39,20.39,0,0,0-1.81,8.64,22.9,22.9,0,0,0,1.29,9.11q1.44,3.55,3.92,3.72,2,.14,4-2.95l7.28,15.22q-5.53,6.35-12.08,5.9-8-.55-13.2-9.47t-4.88-21.55q.33-12.57,6-20.86t13.7-7.74q7.81.54,12.89,9.37t4.76,21.23Q369.46,375.57,369.24,378.31Z" transform="translate(-119.1 -184.28)"/><path class="cls-2" d="M396.86,379l13.37.11q-.9,12.36-6.32,20T391,406.2q-7.91-.54-13.14-9.7T373,374.6q.31-12.11,6-20.34t13.43-7.7q6.73.46,11.69,7.59t6,17.71l-13.66-.13q-1.67-3.79-4.37-4a4.14,4.14,0,0,0-3.84,2.15,11.15,11.15,0,0,0-1.63,6,12,12,0,0,0,1.4,6.36,4.81,4.81,0,0,0,3.84,2.79Q395.26,385.27,396.86,379Z" transform="translate(-119.1 -184.28)"/><path class="cls-2" d="M430.88,329.25l-.62,23.93q3.52-3.73,6.94-3.49,5.18.36,8.07,6.53t2.62,16.34l-.94,36.27-13.45-.92.79-30.24a16.47,16.47,0,0,0-.36-5,2,2,0,0,0-1.86-1.39q-2.27-.16-2.41,5.18l-.81,31.1-13.45-.92,2-78.34Z" transform="translate(-119.1 -184.28)"/><path class="cls-2" d="M486.76,411.57l-13.45-.92.84-32.31q.13-4.94-2.43-5.11T469.07,378l-.84,32.31-13.45-.92.83-31.91q.29-11.19,5.13-18.53t11.57-6.88q7.7.53,12.11,9.74,3.45,7.19,3.13,19.59Z" transform="translate(-119.1 -184.28)"/><path class="cls-2" d="M509.54,355.82,508.05,413l-13.45-.92,1.49-57.22Zm-6-26q2.73.19,4.65,3.4a13.44,13.44,0,0,1,1.81,7.4,12.72,12.72,0,0,1-2.08,7.22,5.36,5.36,0,0,1-4.91,2.54,5.93,5.93,0,0,1-4.76-3.2,13.52,13.52,0,0,1-1.7-7.48,12.6,12.6,0,0,1,2.18-7.12Q500.78,329.63,503.51,329.82Z" transform="translate(-119.1 -184.28)"/><path class="cls-2" d="M531.45,336.17l-2,78.34L516,413.58l2-78.34Zm20.06,22.54-7.12,20.38,8.84,37.06-14.89-1-7.45-37.94,6.63-19.44Z" transform="translate(-119.1 -184.28)"/><path class="cls-2" d="M576.17,396.21l-.58,22.21a11.2,11.2,0,0,1-3,.25q-8.09-.56-13.27-9.42t-4.84-21.66q.32-12.45,6-20.74t13.48-7.76q8.71.6,13.51,9.06t4.44,22.53l-.73,28.06-13.45-.92.69-26.51a16.31,16.31,0,0,0-1.2-7.33q-1.32-2.79-3.65-3-2.12-.14-3.73,2.22a10.45,10.45,0,0,0-1.7,5.75,11.39,11.39,0,0,0,1.25,6,4.34,4.34,0,0,0,3.5,2.54A4.41,4.41,0,0,0,576.17,396.21Z" transform="translate(-119.1 -184.28)"/><text class="cls-3" transform="translate(325.06 273.37)">we love music</text></svg>